<svg xmlns="http://www.w3.org/2000/svg" viewBox="0 0 1200 900" width="1200" height="900" role="presentation">

  <defs>
    <linearGradient id="bg-21" x1="0" y1="0" x2="1" y2="1">
      <stop offset="0" stop-color="#2e2c29"/>
      <stop offset="1" stop-color="#191817"/>
    </linearGradient>
    <linearGradient id="lt-21" x1="0" y1="0" x2="1" y2="1">
      <stop offset="0" stop-color="#fbf9f4"/>
      <stop offset="1" stop-color="#ddd7c9"/>
    </linearGradient>
    <filter id="grain-21" x="0" y="0" width="100%" height="100%">
      <feTurbulence type="fractalNoise" baseFrequency="0.9" numOctaves="3" stitchTiles="stitch" seed="21"/>
      <feColorMatrix type="saturate" values="0"/>
    </filter>
  </defs>
  <rect width="1200" height="900" fill="url(#bg-21)"/>
  <polygon points="0,900 620,0 900,0 280,900" fill="#ece8e0" opacity="0.12"/>
  <polygon points="700,900 1100,200 1200,200 800,900" fill="#c93a1e" opacity="0.85"/>
  <rect x="120" y="180" width="480" height="60" fill="#f7f4ee"/>
  <rect x="120" y="260" width="340" height="60" fill="#f7f4ee"/>
  <rect x="120" y="380" width="300" height="20" fill="#9b958b"/>
  <rect x="120" y="412" width="240" height="20" fill="#9b958b"/>
  <rect x="120" y="500" width="220" height="56" fill="#c93a1e"/>
  <circle cx="950" cy="620" r="150" fill="none" stroke="#c9c3b7" stroke-width="3" opacity="0.7"/>
  <circle cx="950" cy="620" r="100" fill="none" stroke="#c9c3b7" stroke-width="2" opacity="0.5"/>
  <circle cx="950" cy="620" r="34" fill="#c93a1e"/>
  <rect width="1200" height="900" filter="url(#grain-21)" opacity="0.05"/>
</svg>
